<svg width="30" height="30" viewBox="0 0 30 30" fill="none" xmlns="http://www.w3.org/2000/svg">
<path d="M10.2885 27.5V24.7222H6.25V21.9444H8.94231V8.05556H6.25V5.27778H10.2885V2.5H12.9808V5.27778H15.6731V2.5H18.3654V5.45139C19.5321 5.77546 20.4968 6.42917 21.2596 7.4125C22.0224 8.39676 22.4038 9.53704 22.4038 10.8333C22.4038 11.5046 22.2917 12.1468 22.0673 12.7597C21.8429 13.3736 21.5288 13.9236 21.125 14.4097C21.9103 14.8958 22.5438 15.5556 23.0258 16.3889C23.5086 17.2222 23.75 18.1481 23.75 19.1667C23.75 20.6944 23.2228 22.0023 22.1683 23.0903C21.1138 24.1782 19.8462 24.7222 18.3654 24.7222V27.5H15.6731V24.7222H12.9808V27.5H10.2885ZM11.6346 13.6111H17.0192C17.7596 13.6111 18.3937 13.3389 18.9213 12.7944C19.4481 12.2509 19.7115 11.5972 19.7115 10.8333C19.7115 10.0694 19.4481 9.41528 18.9213 8.87083C18.3937 8.32731 17.7596 8.05556 17.0192 8.05556H11.6346V13.6111ZM11.6346 21.9444H18.3654C19.1058 21.9444 19.7398 21.6727 20.2675 21.1292C20.7943 20.5847 21.0577 19.9306 21.0577 19.1667C21.0577 18.4028 20.7943 17.7486 20.2675 17.2042C19.7398 16.6606 19.1058 16.3889 18.3654 16.3889H11.6346V21.9444Z" fill="#FAAB39"/>
</svg>
