<svg width="30" height="30" viewBox="0 0 30 30" fill="none" xmlns="http://www.w3.org/2000/svg">
<path d="M19.9992 18.334C19.7485 18.7729 19.4079 19.1719 18.9955 19.5188C18.5098 19.9275 17.9257 20.2612 17.2719 20.497C18.0664 20.6072 18.629 20.7594 18.913 20.8888C18.4078 21.1189 17.048 21.4268 15 21.4268C12.952 21.4268 11.5922 21.1189 11.087 20.8888C11.3711 20.7594 11.9337 20.6072 12.7282 20.497C12.0744 20.2612 11.4902 19.9275 11.0045 19.5188C10.5921 19.1719 10.2515 18.7732 10.0008 18.334C5.81337 18.803 2.5 19.8801 2.5 21.5317C2.5 23.8086 8.78843 24.9999 15 24.9999C21.2116 24.9999 27.5 23.8086 27.5 21.5317C27.5 19.8801 24.1871 18.803 19.9992 18.334ZM15 23.7141C7.96803 23.7141 4.13199 22.2725 4.13199 21.5317C4.13199 20.9475 6.52649 19.9303 10.9829 19.5251C9.98653 19.8145 9.29997 20.2543 9.29997 20.8888C9.29997 22.2348 12.3707 22.7127 15 22.7127C17.6293 22.7127 20.7 22.2348 20.7 20.8888C20.7 20.2543 20.0135 19.8145 19.0171 19.5251C23.4735 19.9303 25.868 20.9475 25.868 21.5317C25.868 22.2725 22.032 23.7141 15 23.7141Z" fill="#2C99D6"/>
<path d="M15.0013 20.5539C17.878 20.5539 20.2096 17.9686 20.2096 14.7775C20.2096 11.9868 16.7713 8.54893 15.4313 5.29591C15.2677 4.89902 14.7529 4.90212 14.5928 5.30071C13.2935 8.53253 9.79297 11.9911 9.79297 14.7775C9.7929 17.9686 12.1246 20.5539 15.0013 20.5539ZM12.1117 14.0995C12.5629 14.0995 12.9289 14.5056 12.9289 15.006C12.9289 15.8807 13.57 16.5916 14.3587 16.5916C14.81 16.5916 15.1759 16.9975 15.1759 17.498C15.1759 17.9984 14.8099 18.4044 14.3587 18.4044C12.6691 18.4044 11.2944 16.8797 11.2944 15.006C11.2944 14.5056 11.6604 14.0995 12.1117 14.0995Z" fill="#2C99D6"/>
</svg>
