<svg width="24" height="24" viewBox="0 0 24 24" fill="none" xmlns="http://www.w3.org/2000/svg">
<path d="M3.81818 19C3.31818 19 2.8903 18.8288 2.53455 18.4864C2.17818 18.1434 2 17.7312 2 17.25V7.625H3.81818V17.25H19.2727V19H3.81818ZM7.45455 15.5C6.95455 15.5 6.52667 15.3285 6.17091 14.9855C5.81455 14.6431 5.63636 14.2312 5.63636 13.75V6.75C5.63636 6.26875 5.81455 5.85692 6.17091 5.5145C6.52667 5.1715 6.95455 5 7.45455 5H20.1818C20.6818 5 21.11 5.1715 21.4664 5.5145C21.8221 5.85692 22 6.26875 22 6.75V13.75C22 14.2312 21.8221 14.6431 21.4664 14.9855C21.11 15.3285 20.6818 15.5 20.1818 15.5H7.45455ZM9.27273 13.75C9.27273 13.2688 9.09455 12.8566 8.73818 12.5136C8.38242 12.1712 7.95455 12 7.45455 12V13.75H9.27273ZM18.3636 13.75H20.1818V12C19.6818 12 19.2536 12.1712 18.8973 12.5136C18.5415 12.8566 18.3636 13.2688 18.3636 13.75ZM13.8182 12.875C14.5758 12.875 15.2197 12.6198 15.75 12.1094C16.2803 11.599 16.5455 10.9792 16.5455 10.25C16.5455 9.52083 16.2803 8.90104 15.75 8.39062C15.2197 7.88021 14.5758 7.625 13.8182 7.625C13.0606 7.625 12.4167 7.88021 11.8864 8.39062C11.3561 8.90104 11.0909 9.52083 11.0909 10.25C11.0909 10.9792 11.3561 11.599 11.8864 12.1094C12.4167 12.6198 13.0606 12.875 13.8182 12.875ZM7.45455 8.5C7.95455 8.5 8.38242 8.3285 8.73818 7.9855C9.09455 7.64308 9.27273 7.23125 9.27273 6.75H7.45455V8.5ZM20.1818 8.5V6.75H18.3636C18.3636 7.23125 18.5415 7.64308 18.8973 7.9855C19.2536 8.3285 19.6818 8.5 20.1818 8.5Z" fill="#17A663"/>
</svg>
