<svg width="24" height="24" viewBox="0 0 24 24" fill="none" xmlns="http://www.w3.org/2000/svg">
<path d="M5.77778 22C5.28889 22 4.87022 21.8137 4.52178 21.441C4.17393 21.0676 4 20.619 4 20.0952V8.66667C4 8.14286 4.17393 7.6946 4.52178 7.3219C4.87022 6.94857 5.28889 6.7619 5.77778 6.7619H7.55556C7.55556 5.44444 7.98904 4.32127 8.856 3.39238C9.72237 2.46413 10.7704 2 12 2C13.2296 2 14.2779 2.46413 15.1449 3.39238C16.0113 4.32127 16.4444 5.44444 16.4444 6.7619H18.2222C18.7111 6.7619 19.1298 6.94857 19.4782 7.3219C19.8261 7.6946 20 8.14286 20 8.66667V20.0952C20 20.619 19.8261 21.0676 19.4782 21.441C19.1298 21.8137 18.7111 22 18.2222 22H5.77778ZM5.77778 20.0952H18.2222V8.66667H5.77778V20.0952ZM12 14.381C13.2296 14.381 14.2779 13.9165 15.1449 12.9876C16.0113 12.0594 16.4444 10.9365 16.4444 9.61905H14.6667C14.6667 10.4127 14.4074 11.0873 13.8889 11.6429C13.3704 12.1984 12.7407 12.4762 12 12.4762C11.2593 12.4762 10.6296 12.1984 10.1111 11.6429C9.59259 11.0873 9.33333 10.4127 9.33333 9.61905H7.55556C7.55556 10.9365 7.98904 12.0594 8.856 12.9876C9.72237 13.9165 10.7704 14.381 12 14.381ZM9.33333 6.7619H14.6667C14.6667 5.96825 14.4074 5.29365 13.8889 4.7381C13.3704 4.18254 12.7407 3.90476 12 3.90476C11.2593 3.90476 10.6296 4.18254 10.1111 4.7381C9.59259 5.29365 9.33333 5.96825 9.33333 6.7619Z" fill="#B53F5B"/>
</svg>
