<svg width="24" height="24" viewBox="0 0 24 24" fill="none" xmlns="http://www.w3.org/2000/svg">
<path d="M22 22L19.5 22V18.5625L19.0625 19.0625C18.1042 20.1458 17.0104 20.9062 15.7812 21.3437C14.5521 21.7812 13.3125 22 12.0625 22C9.75 22 7.6925 21.3075 5.89 19.9225C4.08833 18.5367 2.89583 16.7292 2.3125 14.5H4.9375C5.47917 16 6.40083 17.2083 7.7025 18.125C9.005 19.0417 10.4583 19.5 12.0625 19.5C13 19.5 13.9113 19.3229 14.7963 18.9687C15.6821 18.6146 16.5 18.0625 17.25 17.3125L17.5625 17H14.5V14.5L22 14.5V22ZM21.6875 9.5H19.0625C18.5208 8 17.5992 6.79167 16.2975 5.875C14.995 4.95833 13.5417 4.5 11.9375 4.5C11 4.5 10.0883 4.67708 9.2025 5.03125C8.3175 5.38542 7.5 5.9375 6.75 6.6875L6.4375 7H9.5L9.5 9.5H2L2 2H4.5V5.4375L4.9375 4.9375C5.95833 3.91667 7.0675 3.17167 8.265 2.7025C9.46333 2.23417 10.6875 2 11.9375 2C14.25 2 16.3071 2.69292 18.1087 4.07875C19.9112 5.46375 21.1042 7.27083 21.6875 9.5Z" fill="#76829B"/>
</svg>
