<svg width="24" height="24" viewBox="0 0 24 24" fill="none" xmlns="http://www.w3.org/2000/svg">
<line x1="4.57031" y1="6.36621" x2="19.9983" y2="6.36621" stroke="#4F5469"/>
<path d="M4.32134 6.4C4.32134 7.05561 3.83803 7.55 3.28567 7.55C2.73331 7.55 2.25 7.05561 2.25 6.4C2.25 5.7444 2.73331 5.25 3.28567 5.25C3.83803 5.25 4.32134 5.7444 4.32134 6.4Z" stroke="#4F5469" stroke-width="0.5"/>
<line x1="4.45312" y1="12.8994" x2="17.5436" y2="12.8994" stroke="#4F5469"/>
<path d="M4.20446 12.9332C4.20446 13.6003 3.73702 14.0832 3.22723 14.0832C2.71744 14.0832 2.25 13.6003 2.25 12.9332C2.25 12.2661 2.71744 11.7832 3.22723 11.7832C3.73702 11.7832 4.20446 12.2661 4.20446 12.9332Z" stroke="#4F5469" stroke-width="0.5"/>
<path d="M19.7513 12.9332C19.7513 13.6003 19.2839 14.0832 18.7741 14.0832C18.2643 14.0832 17.7969 13.6003 17.7969 12.9332C17.7969 12.2661 18.2643 11.7832 18.7741 11.7832C19.2839 11.7832 19.7513 12.2661 19.7513 12.9332Z" stroke="#4F5469" stroke-width="0.5"/>
<line x1="4.57031" y1="17.5664" x2="19.9983" y2="17.5664" stroke="#4F5469"/>
<path d="M4.32134 17.6002C4.32134 18.2558 3.83803 18.7502 3.28567 18.7502C2.73331 18.7502 2.25 18.2558 2.25 17.6002C2.25 16.9446 2.73331 16.4502 3.28567 16.4502C3.83803 16.4502 4.32134 16.9446 4.32134 17.6002Z" stroke="#4F5469" stroke-width="0.5"/>
<line y1="-0.5" x2="15.9953" y2="-0.5" transform="matrix(0.956494 -0.291752 0.272843 0.962059 4.69922 12.4668)" stroke="#4F5469" stroke-dasharray="2 2"/>
</svg>
