<svg width="24" height="24" viewBox="0 0 24 24" fill="none" xmlns="http://www.w3.org/2000/svg">
<path d="M20.8761 2H13.3282H10.7995H3.17494C2.54015 2 2 2.48317 2 3.07914V5.45324C2 6.04921 2.51464 6.53237 3.14943 6.53237C3.78421 6.53237 4.29885 6.04921 4.29885 5.45324V4.15827H9.58621V19.8417H8.23241C7.59762 19.8417 7.08299 20.3249 7.08299 20.9209C7.08299 21.5168 7.59762 22 8.23241 22H15.8186C16.4534 22 16.968 21.5168 16.968 20.9209C16.968 20.3249 16.4534 19.8417 15.8186 19.8417H14.4138V4.15827H19.7011V5.45324C19.7011 6.04921 20.2158 6.53237 20.8506 6.53237C21.4854 6.53237 22 6.04921 22 5.45324V3.07914C22 2.48317 21.5109 2 20.8761 2Z" fill="#4F5469"/>
</svg>
