<svg width="24" height="24" viewBox="0 0 24 24" fill="none" xmlns="http://www.w3.org/2000/svg">
<path d="M7 22C6.30556 22 5.71528 21.7464 5.22917 21.2391C4.74306 20.7319 4.5 20.1159 4.5 19.3913C4.5 18.6667 4.74306 18.0507 5.22917 17.5435C5.71528 17.0362 6.30556 16.7826 7 16.7826C7.19444 16.7826 7.375 16.8043 7.54167 16.8478C7.70833 16.8913 7.86806 16.9493 8.02083 17.0217L9.20833 15.4783C8.81944 15.029 8.54861 14.5217 8.39583 13.9565C8.24306 13.3913 8.20833 12.8261 8.29167 12.2609L6.60417 11.6739C6.36806 12.0362 6.06944 12.3261 5.70833 12.5435C5.34722 12.7609 4.94444 12.8696 4.5 12.8696C3.80556 12.8696 3.21528 12.6159 2.72917 12.1087C2.24306 11.6014 2 10.9855 2 10.2609C2 9.53623 2.24306 8.92029 2.72917 8.41304C3.21528 7.9058 3.80556 7.65217 4.5 7.65217C5.19444 7.65217 5.78472 7.9058 6.27083 8.41304C6.75694 8.92029 7 9.53623 7 10.2609V10.4348L8.6875 11.0435C8.96528 10.5217 9.33694 10.0797 9.8025 9.71739C10.2675 9.35507 10.7917 9.12319 11.375 9.02174V7.13043C10.8333 6.97101 10.3853 6.6629 10.0308 6.20609C9.67694 5.74985 9.5 5.21739 9.5 4.6087C9.5 3.88406 9.74306 3.26812 10.2292 2.76087C10.7153 2.25362 11.3056 2 12 2C12.6944 2 13.2847 2.25362 13.7708 2.76087C14.2569 3.26812 14.5 3.88406 14.5 4.6087C14.5 5.21739 14.3194 5.74985 13.9583 6.20609C13.5972 6.6629 13.1528 6.97101 12.625 7.13043V9.02174C13.2083 9.12319 13.7328 9.35507 14.1983 9.71739C14.6633 10.0797 15.0347 10.5217 15.3125 11.0435L17 10.4348V10.2609C17 9.53623 17.2431 8.92029 17.7292 8.41304C18.2153 7.9058 18.8056 7.65217 19.5 7.65217C20.1944 7.65217 20.7847 7.9058 21.2708 8.41304C21.7569 8.92029 22 9.53623 22 10.2609C22 10.9855 21.7569 11.6014 21.2708 12.1087C20.7847 12.6159 20.1944 12.8696 19.5 12.8696C19.0556 12.8696 18.6494 12.7609 18.2817 12.5435C17.9133 12.3261 17.6181 12.0362 17.3958 11.6739L15.7083 12.2609C15.7917 12.8261 15.7569 13.3875 15.6042 13.9452C15.4514 14.5035 15.1806 15.0145 14.7917 15.4783L15.9792 17C16.1319 16.9275 16.2917 16.873 16.4583 16.8365C16.625 16.8006 16.8056 16.7826 17 16.7826C17.6944 16.7826 18.2847 17.0362 18.7708 17.5435C19.2569 18.0507 19.5 18.6667 19.5 19.3913C19.5 20.1159 19.2569 20.7319 18.7708 21.2391C18.2847 21.7464 17.6944 22 17 22C16.3056 22 15.7153 21.7464 15.2292 21.2391C14.7431 20.7319 14.5 20.1159 14.5 19.3913C14.5 19.1014 14.5453 18.8226 14.6358 18.5548C14.7258 18.2864 14.8472 18.0435 15 17.8261L13.8125 16.2826C13.2431 16.6159 12.6356 16.7826 11.99 16.7826C11.3439 16.7826 10.7361 16.6159 10.1667 16.2826L9 17.8261C9.15278 18.0435 9.27444 18.2864 9.365 18.5548C9.455 18.8226 9.5 19.1014 9.5 19.3913C9.5 20.1159 9.25694 20.7319 8.77083 21.2391C8.28472 21.7464 7.69444 22 7 22ZM4.5 11.1304C4.73611 11.1304 4.93417 11.047 5.09417 10.88C5.25361 10.7136 5.33333 10.5072 5.33333 10.2609C5.33333 10.0145 5.25361 9.80783 5.09417 9.64087C4.93417 9.47449 4.73611 9.3913 4.5 9.3913C4.26389 9.3913 4.06611 9.47449 3.90667 9.64087C3.74667 9.80783 3.66667 10.0145 3.66667 10.2609C3.66667 10.5072 3.74667 10.7136 3.90667 10.88C4.06611 11.047 4.26389 11.1304 4.5 11.1304ZM7 20.2609C7.23611 20.2609 7.43417 20.1774 7.59417 20.0104C7.75361 19.8441 7.83333 19.6377 7.83333 19.3913C7.83333 19.1449 7.75361 18.9386 7.59417 18.7722C7.43417 18.6052 7.23611 18.5217 7 18.5217C6.76389 18.5217 6.56583 18.6052 6.40583 18.7722C6.24639 18.9386 6.16667 19.1449 6.16667 19.3913C6.16667 19.6377 6.24639 19.8441 6.40583 20.0104C6.56583 20.1774 6.76389 20.2609 7 20.2609ZM12 5.47826C12.2361 5.47826 12.4342 5.39478 12.5942 5.22783C12.7536 5.06145 12.8333 4.85507 12.8333 4.6087C12.8333 4.36232 12.7536 4.15565 12.5942 3.9887C12.4342 3.82232 12.2361 3.73913 12 3.73913C11.7639 3.73913 11.5661 3.82232 11.4067 3.9887C11.2467 4.15565 11.1667 4.36232 11.1667 4.6087C11.1667 4.85507 11.2467 5.06145 11.4067 5.22783C11.5661 5.39478 11.7639 5.47826 12 5.47826ZM12 15.0435C12.5833 15.0435 13.0764 14.8333 13.4792 14.413C13.8819 13.9928 14.0833 13.4783 14.0833 12.8696C14.0833 12.2609 13.8819 11.7464 13.4792 11.3261C13.0764 10.9058 12.5833 10.6957 12 10.6957C11.4167 10.6957 10.9236 10.9058 10.5208 11.3261C10.1181 11.7464 9.91667 12.2609 9.91667 12.8696C9.91667 13.4783 10.1181 13.9928 10.5208 14.413C10.9236 14.8333 11.4167 15.0435 12 15.0435ZM17 20.2609C17.2361 20.2609 17.4339 20.1774 17.5933 20.0104C17.7533 19.8441 17.8333 19.6377 17.8333 19.3913C17.8333 19.1449 17.7533 18.9386 17.5933 18.7722C17.4339 18.6052 17.2361 18.5217 17 18.5217C16.7639 18.5217 16.5661 18.6052 16.4067 18.7722C16.2467 18.9386 16.1667 19.1449 16.1667 19.3913C16.1667 19.6377 16.2467 19.8441 16.4067 20.0104C16.5661 20.1774 16.7639 20.2609 17 20.2609ZM19.5 11.1304C19.7361 11.1304 19.9339 11.047 20.0933 10.88C20.2533 10.7136 20.3333 10.5072 20.3333 10.2609C20.3333 10.0145 20.2533 9.80783 20.0933 9.64087C19.9339 9.47449 19.7361 9.3913 19.5 9.3913C19.2639 9.3913 19.0661 9.47449 18.9067 9.64087C18.7467 9.80783 18.6667 10.0145 18.6667 10.2609C18.6667 10.5072 18.7467 10.7136 18.9067 10.88C19.0661 11.047 19.2639 11.1304 19.5 11.1304Z" fill="#4F5469"/>
</svg>
