<svg width="24" height="24" viewBox="0 0 24 24" fill="none" xmlns="http://www.w3.org/2000/svg">
<path d="M6.21053 21C5.42105 21 4.64035 20.8165 3.86842 20.4496C3.09649 20.0827 2.47368 19.5991 2 18.9987C2.45614 18.9987 2.92105 18.8279 3.39474 18.4864C3.86842 18.1442 4.10526 17.6479 4.10526 16.9974C4.10526 16.1636 4.41228 15.4548 5.02632 14.8711C5.64035 14.2874 6.38596 13.9955 7.26316 13.9955C8.14035 13.9955 8.88597 14.2874 9.5 14.8711C10.114 15.4548 10.4211 16.1636 10.4211 16.9974C10.4211 18.0981 10.0088 19.0404 9.18421 19.8242C8.35965 20.6081 7.36842 21 6.21053 21ZM6.21053 18.9987C6.78947 18.9987 7.28491 18.8029 7.69684 18.4113C8.10947 18.0191 8.31579 17.5478 8.31579 16.9974C8.31579 16.7139 8.21509 16.4764 8.01368 16.285C7.81158 16.0929 7.5614 15.9968 7.26316 15.9968C6.96491 15.9968 6.71474 16.0929 6.51263 16.285C6.31123 16.4764 6.21053 16.7139 6.21053 16.9974C6.21053 17.381 6.16246 17.7312 6.06632 18.0481C5.96947 18.365 5.84211 18.6652 5.68421 18.9487C5.77193 18.982 5.85965 18.9987 5.94737 18.9987H6.21053ZM12.2632 14.9962L9.36842 12.2444L18.7895 3.28865C18.9825 3.1052 19.2239 3.00913 19.5137 3.00046C19.8028 2.99246 20.0526 3.08852 20.2632 3.28865L21.6842 4.63951C21.8947 4.83964 22 5.07312 22 5.33996C22 5.6068 21.8947 5.84028 21.6842 6.04041L12.2632 14.9962Z" fill="#4F5469"/>
</svg>
