<svg width="24" height="24" viewBox="0 0 24 24" fill="none" xmlns="http://www.w3.org/2000/svg">
<line x1="2" y1="4.5" x2="19.9995" y2="4.5" stroke="#4F5469"/>
<line x1="2" y1="11.8848" x2="19.9995" y2="11.8848" stroke="#4F5469"/>
<line x1="4.57031" y1="15.5762" x2="19.9985" y2="15.5762" stroke="#4F5469"/>
<path d="M4.32136 15.6151C4.32136 16.2595 3.84054 16.7497 3.28568 16.7497C2.73082 16.7497 2.25 16.2595 2.25 15.6151C2.25 14.9707 2.73082 14.4805 3.28568 14.4805C3.84054 14.4805 4.32136 14.9707 4.32136 15.6151Z" stroke="#4F5469" stroke-width="0.5"/>
<line y1="-0.5" x2="15.4281" y2="-0.5" transform="matrix(-1 0 0 1 17.4297 8.69141)" stroke="#4F5469"/>
<path d="M17.6786 8.23032C17.6786 8.87473 18.1595 9.36493 18.7143 9.36493C19.2692 9.36493 19.75 8.87473 19.75 8.23032C19.75 7.58591 19.2692 7.0957 18.7143 7.0957C18.1595 7.0957 17.6786 7.58591 17.6786 8.23032Z" stroke="#4F5469" stroke-width="0.5"/>
</svg>
