<svg width="24" height="24" viewBox="0 0 24 24" fill="none" xmlns="http://www.w3.org/2000/svg">
<circle cx="12" cy="12" r="10" fill="#17A663"/>
<path d="M15.59 17C15.5259 17 15.4651 16.9626 15.4389 16.9006C15.4044 16.8186 15.4439 16.7245 15.5272 16.6905C15.5525 16.6801 18.0648 15.6176 18.3705 12.7922C18.6036 10.6366 17.6699 9.44942 17.3824 9.14001C17.1752 9.15079 16.5073 9.15393 16.103 8.76889C15.6509 8.33831 15.3748 7.24555 15.3633 7.19929C15.3499 7.14562 15.3655 7.08883 15.4045 7.04908C15.4436 7.00934 15.5005 6.99204 15.5556 7.00355C15.603 7.01336 16.7217 7.24852 17.1739 7.6791C17.5572 8.0441 17.5946 8.65392 17.5937 8.89029C17.8943 9.19769 18.9512 10.4627 18.6955 12.8264C18.3689 15.8459 15.6797 16.9767 15.6526 16.9878C15.632 16.996 15.6109 17 15.59 17ZM15.755 7.38279C15.8708 7.75182 16.082 8.30114 16.3303 8.53759C16.5756 8.77114 17.0034 8.82198 17.262 8.82198C17.2631 8.82198 17.2643 8.82198 17.2654 8.82198C17.2584 8.59745 17.2091 8.16044 16.9465 7.91039C16.6983 7.67395 16.1336 7.48432 15.755 7.38279ZM8.40981 17C8.38897 17 8.36773 16.9961 8.3473 16.9877C8.32016 16.9766 5.63095 15.8459 5.30439 12.8263C5.04869 10.4626 6.10567 9.19761 6.40616 8.89021C6.40518 8.65384 6.44261 8.04402 6.82597 7.67902C7.27813 7.24844 8.39682 7.0132 8.44422 7.00347C8.49914 6.99204 8.55618 7.00926 8.59532 7.049C8.63438 7.08875 8.64999 7.14546 8.63659 7.19921C8.62507 7.24555 8.34893 8.33831 7.89685 8.76881C7.49298 9.15344 6.82564 9.15127 6.61807 9.13993C6.33147 9.45063 5.39723 10.6446 5.6294 12.7922C5.93504 15.6175 8.44732 16.68 8.47266 16.6904C8.55593 16.7246 8.5954 16.8187 8.56075 16.9007C8.53468 16.9626 8.47388 17 8.40981 17ZM6.73436 8.82094C6.73591 8.82094 6.7373 8.82094 6.73885 8.82094C6.96865 8.82094 7.40905 8.78562 7.66958 8.53751C7.91826 8.30074 8.12943 7.75158 8.24498 7.38271C7.86645 7.48424 7.30159 7.67387 7.05332 7.91031C6.79115 8.15995 6.74155 8.596 6.73436 8.82094ZM18.7575 16.1612C18.7456 16.1612 18.7338 16.1611 18.722 16.1606C18.153 16.1401 17.7014 15.6227 17.6824 15.6007C17.6278 15.5372 17.6313 15.4434 17.6904 15.384C17.711 15.3634 18.1997 14.881 18.7688 14.9002C19.3098 14.9197 20.1252 15.4207 20.1597 15.4419C20.209 15.4725 20.2381 15.5266 20.2361 15.5841C20.2339 15.6414 20.2009 15.6933 20.1493 15.7203C20.1141 15.7387 19.2994 16.1612 18.7575 16.1612ZM18.0449 15.5047C18.1879 15.6336 18.45 15.8289 18.734 15.8391C19.0057 15.8475 19.4259 15.6956 19.7227 15.5657C19.4361 15.4147 19.0283 15.2317 18.7569 15.2219C18.4892 15.2126 18.2113 15.3763 18.0449 15.5047ZM5.24245 16.1612C4.70047 16.1612 3.88571 15.7387 3.85065 15.7203C3.79908 15.6934 3.76606 15.6415 3.76386 15.5841C3.76182 15.5268 3.79083 15.4726 3.84027 15.442C3.87475 15.4207 4.69001 14.9197 5.23117 14.9003C5.80126 14.8812 6.28897 15.3635 6.30949 15.3841C6.36865 15.4434 6.37217 15.5373 6.31758 15.6008C6.29862 15.6228 5.84694 16.1402 5.27791 16.1607C5.26623 16.1611 5.2543 16.1612 5.24245 16.1612ZM4.27723 15.5656C4.57437 15.6956 4.99589 15.848 5.2659 15.839C5.53477 15.8294 5.79864 15.6459 5.95514 15.5057C5.80298 15.3874 5.52798 15.2117 5.2431 15.2218C4.97113 15.2316 4.56359 15.4146 4.27723 15.5656ZM17.2894 15.1553C17.2682 15.1553 17.2468 15.1512 17.2264 15.1428C17.2009 15.1322 16.5995 14.8796 16.4528 14.3965C16.3168 13.9484 16.5387 13.1665 16.5645 13.0788C16.5799 13.0263 16.6214 12.985 16.6746 12.9694C16.728 12.9537 16.7855 12.9659 16.8278 13.0013C16.8982 13.0607 17.5197 13.5945 17.6557 14.0426C17.8025 14.5257 17.4405 15.0618 17.425 15.0844C17.3937 15.1298 17.3423 15.1553 17.2894 15.1553ZM16.7659 14.3044C16.834 14.5288 17.0739 14.6955 17.225 14.7812C17.3037 14.6285 17.411 14.3607 17.3425 14.1347C17.2761 13.9162 17.0176 13.6269 16.8139 13.428C16.7547 13.7046 16.6997 14.0864 16.7659 14.3044ZM6.71049 15.1553C6.65746 15.1553 6.60614 15.1298 6.57492 15.0844C6.55947 15.0619 6.19745 14.5258 6.34422 14.0426C6.4802 13.5945 7.1017 13.0607 7.17214 13.0013C7.21439 12.9658 7.272 12.9536 7.32529 12.9694C7.37849 12.985 7.42 13.0263 7.43545 13.0788C7.46119 13.1665 7.68315 13.9484 7.54716 14.3965C7.40047 14.8796 6.79908 15.1322 6.77358 15.1428C6.75307 15.1512 6.73166 15.1553 6.71049 15.1553ZM7.18611 13.4281C6.9823 13.6272 6.72357 13.9168 6.65738 14.1348C6.58873 14.361 6.69628 14.6289 6.77505 14.7816C6.92599 14.6965 7.16519 14.5306 7.23392 14.3044C7.30028 14.086 7.24536 13.7044 7.18611 13.4281ZM19.4435 14.3582C19.011 14.3582 18.6201 14.1388 18.5997 14.1273C18.5276 14.0861 18.4984 13.9983 18.5319 13.9232C18.5439 13.8965 18.8302 13.2676 19.3724 13.0932C19.8875 12.9277 20.8317 13.1293 20.8717 13.1379C20.9282 13.1501 20.9739 13.1909 20.9919 13.245C21.0099 13.2992 20.9974 13.3586 20.9592 13.4013C20.9322 13.4315 20.2911 14.143 19.7757 14.3088C19.6658 14.344 19.5533 14.3582 19.4435 14.3582ZM18.9057 13.9159C19.085 13.9906 19.4029 14.0902 19.6741 14.0029C19.9343 13.9192 20.2766 13.6264 20.5088 13.4005C20.1858 13.3532 19.7335 13.3156 19.4739 13.3992C19.2025 13.4864 19.0058 13.7512 18.9057 13.9159ZM4.55639 14.3582C4.44656 14.3582 4.33403 14.3441 4.22428 14.3088C3.70886 14.143 3.06784 13.4316 3.04079 13.4013C3.00254 13.3586 2.99012 13.2991 3.0081 13.245C3.02608 13.191 3.07176 13.1501 3.12831 13.1379C3.16827 13.1292 4.11224 12.9274 4.62774 13.0932C5.1698 13.2676 5.45615 13.8965 5.46808 13.9232C5.50159 13.9983 5.47241 14.0861 5.40033 14.1273C5.37974 14.1388 4.98878 14.3582 4.55639 14.3582ZM3.49115 13.4003C3.72349 13.6263 4.06606 13.9194 4.32578 14.0028C4.58279 14.0856 4.89824 13.9979 5.09461 13.9166C4.99475 13.752 4.7978 13.4865 4.52608 13.3991C4.26612 13.3154 3.81395 13.353 3.49115 13.4003ZM14.3994 13.4598C14.3734 13.4598 14.3473 13.4537 14.3234 13.4414L13.6359 13.0856L12.9485 13.4414C12.8934 13.4699 12.8268 13.4651 12.7764 13.4292C12.7261 13.3931 12.7009 13.3322 12.7113 13.2718L12.8426 12.5182L12.2864 11.9845C12.2419 11.9418 12.2259 11.8778 12.2451 11.8196C12.2643 11.7613 12.3155 11.7189 12.3771 11.7101L13.1456 11.6001L13.4892 10.9145C13.5168 10.8596 13.5736 10.8248 13.6358 10.8248C13.6981 10.8248 13.7549 10.8596 13.7824 10.9145L14.1261 11.6001L14.8947 11.7101C14.9563 11.7189 15.0074 11.7613 15.0267 11.8196C15.0459 11.8778 15.0298 11.9418 14.9853 11.9845L14.4291 12.5182L14.5603 13.2718C14.5708 13.3322 14.5456 13.3931 14.4953 13.4292C14.4671 13.4495 14.4333 13.4598 14.3994 13.4598ZM13.636 12.7429C13.6621 12.7429 13.6883 12.7491 13.7121 12.7614L14.1825 13.0048L14.0926 12.4891C14.0836 12.437 14.1011 12.3836 14.1396 12.3467L14.5201 11.9815L13.9942 11.9063C13.9409 11.8988 13.8949 11.8659 13.871 11.8183L13.6359 11.3492L13.4008 11.8183C13.3769 11.8658 13.331 11.8988 13.2776 11.9063L12.7518 11.9815L13.1323 12.3467C13.1708 12.3836 13.1883 12.437 13.1792 12.4891L13.0894 13.0048L13.5597 12.7614C13.5837 12.749 13.6098 12.7429 13.636 12.7429ZM11.1274 13.4598C11.1014 13.4598 11.0752 13.4537 11.0513 13.4414L10.3639 13.0856L9.67642 13.4414C9.62142 13.4699 9.55473 13.4651 9.50431 13.4292C9.45405 13.3931 9.4288 13.3322 9.43926 13.2718L9.57051 12.5182L9.01439 11.9845C8.96985 11.9418 8.95384 11.8778 8.97304 11.8196C8.99224 11.7613 9.0434 11.7189 9.10502 11.7101L9.87345 11.6001L10.2173 10.9145C10.2448 10.8596 10.3015 10.8248 10.3638 10.8248C10.426 10.8248 10.4828 10.8596 10.5104 10.9145L10.854 11.6001L11.6225 11.7101C11.6842 11.7189 11.7353 11.7613 11.7545 11.8196C11.7737 11.8778 11.7577 11.9418 11.7132 11.9845L11.157 12.5182L11.2883 13.2718C11.2988 13.3322 11.2735 13.3931 11.2232 13.4292C11.195 13.4495 11.1612 13.4598 11.1274 13.4598ZM10.3639 12.7429C10.39 12.7429 10.4162 12.7491 10.44 12.7614L10.9104 13.0048L10.8205 12.4891C10.8115 12.437 10.829 12.3836 10.8675 12.3467L11.248 11.9815L10.7221 11.9063C10.6688 11.8988 10.6228 11.8659 10.599 11.8183L10.3639 11.3491L10.1286 11.8183C10.1048 11.8658 10.0588 11.8988 10.0055 11.9063L9.47971 11.9815L9.86021 12.3467C9.8987 12.3836 9.91627 12.437 9.9072 12.4891L9.81731 13.0048L10.2877 12.7614C10.3116 12.749 10.3378 12.7429 10.3639 12.7429ZM18.1389 13.0894C18.0373 13.0894 17.4671 13.0735 17.1499 12.7276C16.8329 12.3819 16.677 11.5968 16.6603 11.5084C16.6499 11.4534 16.6693 11.397 16.7115 11.3595C16.7538 11.322 16.8128 11.3089 16.8672 11.3246C16.9547 11.35 17.7321 11.5827 18.0492 11.9285C18.3909 12.3012 18.3155 12.9223 18.3121 12.9486C18.302 13.0276 18.2346 13.0873 18.1537 13.0893C18.1518 13.0893 18.1469 13.0894 18.1389 13.0894ZM17.3926 12.512C17.5506 12.6843 17.8239 12.7405 17.9945 12.7588C17.9934 12.59 17.9645 12.3165 17.8066 12.1441C17.6538 11.9776 17.3106 11.823 17.0462 11.7245C17.1191 11.9936 17.2402 12.3458 17.3926 12.512ZM5.86092 13.0894C5.85299 13.0894 5.848 13.0893 5.84604 13.0893C5.76522 13.0874 5.69788 13.0276 5.68767 12.9486C5.68432 12.9223 5.60889 12.3012 5.95057 11.9286C6.26765 11.5828 7.04506 11.35 7.13259 11.3246C7.18742 11.3088 7.24618 11.322 7.28827 11.3595C7.33052 11.397 7.34988 11.4534 7.33942 11.5084C7.32275 11.5968 7.16691 12.3818 6.84975 12.7276C6.53283 13.0735 5.96266 13.0894 5.86092 13.0894ZM6.95362 11.7247C6.68917 11.8233 6.34569 11.978 6.1932 12.1442C6.03523 12.3165 6.00638 12.59 6.00532 12.7589C6.17579 12.7405 6.44923 12.6844 6.60712 12.512C6.75985 12.3454 6.88105 11.9935 6.95362 11.7247ZM4.97832 12.388C4.80279 12.388 4.22918 12.3598 3.89102 12.01C3.51624 11.6224 3.30793 10.6831 3.29935 10.6434C3.28742 10.5887 3.30532 10.5317 3.34642 10.4931C3.38769 10.4545 3.44637 10.4396 3.50137 10.4543C3.54125 10.4647 4.48374 10.716 4.85844 11.1036C5.25283 11.5115 5.18761 12.2125 5.18467 12.2422C5.17674 12.3215 5.11096 12.3832 5.02997 12.3871C5.02572 12.3873 5.00758 12.388 4.97832 12.388ZM3.68966 10.8481C3.78053 11.16 3.93735 11.5913 4.12785 11.7882C4.31621 11.9831 4.64743 12.0473 4.86301 12.0626C4.85901 11.8695 4.82117 11.5317 4.62169 11.3254C4.43128 11.1284 4.00159 10.9529 3.68966 10.8481ZM19.0215 12.388C18.9924 12.388 18.9742 12.3872 18.9699 12.387C18.889 12.3832 18.8232 12.3215 18.8152 12.2421C18.8122 12.2125 18.7469 11.5115 19.1413 11.1035C19.1413 11.1035 19.1413 11.1035 19.1413 11.1035C19.516 10.7159 20.4585 10.4647 20.4984 10.4542C20.5536 10.4397 20.6121 10.4544 20.6533 10.493C20.6945 10.5317 20.7124 10.5886 20.7004 10.6434C20.6918 10.6832 20.4835 11.6224 20.1088 12.01C19.7707 12.3598 19.1971 12.388 19.0215 12.388ZM19.3782 11.3254C19.1789 11.5314 19.141 11.8684 19.1369 12.0618C19.3328 12.0483 19.6729 11.9943 19.8721 11.7882C20.0628 11.5909 20.2196 11.1597 20.3104 10.848C19.9984 10.9528 19.5686 11.1284 19.3782 11.3254ZM6.72905 10.8658C6.33082 10.8658 5.97198 10.6502 5.95383 10.6391C5.88216 10.5954 5.8561 10.5051 5.89361 10.4308C5.90521 10.4078 6.18298 9.86712 6.67078 9.73044C7.13193 9.60107 7.95283 9.80309 7.98772 9.81177C8.04419 9.82585 8.08881 9.86849 8.10483 9.92376C8.12076 9.97895 8.10565 10.0383 8.06519 10.0796C8.04027 10.1049 7.45016 10.7024 6.98925 10.8316C6.90262 10.8557 6.81493 10.8658 6.72905 10.8658ZM6.271 10.4376C6.42545 10.5042 6.67756 10.5842 6.8996 10.522C7.11387 10.4619 7.40014 10.244 7.60804 10.0629C7.33436 10.0166 6.97462 9.97984 6.76026 10.0399C6.53823 10.102 6.36661 10.3008 6.271 10.4376ZM17.2707 10.8658C17.1848 10.8658 17.0972 10.8557 17.0106 10.8315C16.5498 10.7024 15.9597 10.1049 15.9347 10.0795C15.8943 10.0382 15.8791 9.97887 15.8951 9.92368C15.911 9.86841 15.9557 9.82585 16.0122 9.81169C16.047 9.80309 16.8682 9.60107 17.3292 9.73036C17.817 9.86704 18.0947 10.4078 18.1063 10.4307C18.1438 10.505 18.1178 10.5953 18.0461 10.6391C18.0279 10.6502 17.669 10.8657 17.2707 10.8658ZM16.3916 10.0627C16.5996 10.2439 16.8859 10.4619 17.1002 10.5219C17.3207 10.5838 17.5736 10.5036 17.7286 10.4371C17.6329 10.3004 17.4614 10.102 17.2396 10.0398C17.0248 9.97968 16.6652 10.0165 16.3916 10.0627ZM18.6111 10.3837C18.554 10.3837 18.4992 10.3541 18.4693 10.3028C18.4541 10.2769 18.1018 9.66222 18.293 9.13116C18.4746 8.62657 19.2337 8.01965 19.2659 7.99406C19.3102 7.95899 19.3697 7.94893 19.4231 7.96759C19.4766 7.98626 19.5165 8.03099 19.5284 8.08562C19.5369 8.12552 19.7383 9.0676 19.5566 9.57219C19.3653 10.1032 18.6983 10.3621 18.67 10.3729C18.6507 10.3802 18.6308 10.3837 18.6111 10.3837ZM19.2575 8.42802C19.0152 8.64861 18.6935 8.98192 18.6011 9.23856C18.5097 9.49246 18.6028 9.81338 18.6873 10.0096C18.8609 9.91918 19.1518 9.73342 19.2486 9.46455C19.3411 9.20743 19.3045 8.74942 19.2575 8.42802ZM5.38873 10.3837C5.36912 10.3837 5.34926 10.3802 5.32989 10.3728C5.30153 10.3621 4.63452 10.1031 4.44329 9.57211C4.26146 9.0676 4.46274 8.12544 4.4714 8.08554C4.48334 8.03083 4.52313 7.98618 4.57666 7.96751C4.63011 7.94885 4.68968 7.9589 4.73389 7.99398C4.76617 8.01957 5.52529 8.62649 5.70687 9.13108C5.8981 9.66214 5.54563 10.2769 5.53052 10.3028C5.50069 10.3541 5.44585 10.3837 5.38873 10.3837ZM4.74247 8.42802C4.69548 8.74966 4.65896 9.20791 4.7513 9.46463C4.84798 9.73309 5.13793 9.91869 5.31183 10.0094C5.38881 9.83124 5.49538 9.50719 5.3987 9.23864C5.30619 8.98144 4.9847 8.64845 4.74247 8.42802Z" fill="#171B2C"/>
</svg>
