<svg width="24" height="24" viewBox="0 0 24 24" fill="none" xmlns="http://www.w3.org/2000/svg">
<path d="M9.22188 2.0166H7.43376C5.27414 2.0166 3.51459 3.77614 3.51459 5.93577V8.46282L2.85324 7.80146C2.65728 7.6055 2.34293 7.6055 2.14697 7.80146C1.95101 7.99741 1.95101 8.31176 2.14697 8.50772L3.66156 10.0223C3.75954 10.1203 3.8861 10.1693 4.01674 10.1693C4.14738 10.1693 4.27393 10.1203 4.37191 10.0223L5.88651 8.50772C6.08247 8.31176 6.08247 7.99741 5.88651 7.80146C5.69055 7.6055 5.3762 7.6055 5.18024 7.80146L4.51888 8.46282V5.93577C4.51888 4.32728 5.82935 3.01681 7.43784 3.01681H9.22188C9.49949 3.01681 9.72403 2.79227 9.72403 2.51874C9.72403 2.24522 9.49949 2.0166 9.22188 2.0166Z" fill="#17A663"/>
<path d="M16.5637 20.9792H14.7756C14.498 20.9792 14.2734 21.2037 14.2734 21.4813C14.2734 21.7589 14.498 21.9835 14.7756 21.9835H16.5637C18.7233 21.9835 20.4829 20.2239 20.4829 18.0643V15.5373L21.1442 16.1986C21.2422 16.2966 21.3688 16.3456 21.4994 16.3456C21.63 16.3456 21.7566 16.2966 21.8546 16.1986C22.0505 16.0027 22.0505 15.6883 21.8546 15.4924L20.34 13.9778C20.1522 13.79 19.8215 13.79 19.6337 13.9778L18.1191 15.4924C17.9232 15.6883 17.9232 16.0027 18.1191 16.1986C18.3151 16.3946 18.6294 16.3946 18.8254 16.1986L19.4867 15.5373V18.0643C19.4827 19.6687 18.1722 20.9792 16.5637 20.9792Z" fill="#17A663"/>
<circle cx="17.5" cy="6.5" r="4" stroke="#17A663"/>
<circle cx="6.5" cy="17.5" r="4" stroke="#17A663"/>
</svg>
