<svg width="24" height="24" viewBox="0 0 24 24" fill="none" xmlns="http://www.w3.org/2000/svg">
<path d="M15.6842 13.6667C16.1404 13.6667 16.5175 13.5093 16.8158 13.1944C17.114 12.8796 17.2632 12.4815 17.2632 12C17.2632 11.5185 17.114 11.1204 16.8158 10.8056C16.5175 10.4907 16.1404 10.3333 15.6842 10.3333C15.2281 10.3333 14.8509 10.4907 14.5526 10.8056C14.2544 11.1204 14.1053 11.5185 14.1053 12C14.1053 12.4815 14.2544 12.8796 14.5526 13.1944C14.8509 13.5093 15.2281 13.6667 15.6842 13.6667ZM12.5263 17.5556C11.9474 17.5556 11.4519 17.3381 11.04 16.9033C10.6274 16.4678 10.4211 15.9444 10.4211 15.3333V8.66667C10.4211 8.05556 10.6274 7.53222 11.04 7.09667C11.4519 6.66185 11.9474 6.44444 12.5263 6.44444H19.8947C20.4737 6.44444 20.9695 6.66185 21.3821 7.09667C21.794 7.53222 22 8.05556 22 8.66667V15.3333C22 15.9444 21.794 16.4678 21.3821 16.9033C20.9695 17.3381 20.4737 17.5556 19.8947 17.5556H12.5263ZM4.10526 22C3.52632 22 3.03053 21.7826 2.61789 21.3478C2.20596 20.9122 2 20.3889 2 19.7778V4.22222C2 3.61111 2.20596 3.08778 2.61789 2.65222C3.03053 2.21741 3.52632 2 4.10526 2H18.8421C19.4211 2 19.9168 2.21741 20.3295 2.65222C20.7414 3.08778 20.9474 3.61111 20.9474 4.22222H12.5263C11.2807 4.22222 10.2677 4.63407 9.48737 5.45778C8.70632 6.28222 8.31579 7.35185 8.31579 8.66667V15.3333C8.31579 16.6481 8.70632 17.7174 9.48737 18.5411C10.2677 19.3656 11.2807 19.7778 12.5263 19.7778H20.9474C20.9474 20.3889 20.7414 20.9122 20.3295 21.3478C19.9168 21.7826 19.4211 22 18.8421 22H4.10526Z" fill="#17A663"/>
</svg>
