<svg width="24" height="24" viewBox="0 0 24 24" fill="none" xmlns="http://www.w3.org/2000/svg">
<path d="M7 15H4.5C3.83696 15 3.20107 14.7717 2.73223 14.3654C2.26339 13.9591 2 13.408 2 12.8333V4.16667C2 3.59203 2.26339 3.04093 2.73223 2.6346C3.20107 2.22827 3.83696 2 4.5 2L19.5 2C20.163 2 20.7989 2.22827 21.2678 2.6346C21.7366 3.04093 22 3.59203 22 4.16667V12.4C22 13.5965 20.8806 15 19.5 15H17" stroke="#76829B" stroke-width="2" stroke-linecap="round" stroke-linejoin="round"/>
<path d="M6 18L11.5 22L17 18" stroke="#76829B" stroke-width="2" stroke-linecap="round" stroke-linejoin="round"/>
<path d="M11 8V21" stroke="#76829B" stroke-width="2" stroke-linecap="round" stroke-linejoin="round"/>
</svg>
